<svg width="51" height="32" viewBox="0 0 51 32" fill="none" xmlns="http://www.w3.org/2000/svg">
<path d="M5.12489 0.579285H46.5857C48.6668 0.579285 50.3555 2.25791 50.3555 4.32933V26.8299C50.3555 28.9007 48.6678 30.5793 46.5857 30.5793H5.12489C3.04348 30.5793 1.35547 28.9003 1.35547 26.8299V4.32933C1.35582 2.25756 3.04348 0.579285 5.12489 0.579285Z" fill="white" stroke="#E1E1E1" stroke-miterlimit="10"/>
<path d="M17.759 10.5659H10.1659V14.5437H17.759V10.5659Z" fill="#2C2E77"/>
<path d="M20.3724 12.8321L18.3476 10.8019C18.0533 10.5068 17.5706 10.495 17.2645 10.7783L14.863 12.962C14.3685 13.4105 13.6033 13.4105 13.1089 12.962L10.7073 10.7665C10.4012 10.4832 9.91857 10.495 9.62427 10.8019L7.59942 12.8321C7.08144 13.3515 7.08144 14.1896 7.59942 14.7089L13.1089 20.2331C13.5915 20.717 14.3685 20.717 14.8512 20.2331L20.3606 14.7089C20.8904 14.1896 20.8904 13.3515 20.3724 12.8321Z" fill="#E73261"/>
<path d="M37.7543 13.7353C37.7524 13.1257 37.3399 12.6091 36.7628 12.5084C36.269 12.4233 35.8139 12.5259 35.446 12.88C35.2523 13.0677 35.08 13.2786 34.9154 13.4934C34.6985 13.7779 34.5048 14.0798 34.288 14.3642C34.164 14.5287 34.0246 14.6816 33.8813 14.8287C33.7961 14.9158 33.7361 14.908 33.645 14.8287C33.5869 14.7784 33.5288 14.7261 33.4824 14.6642C33.3061 14.4378 33.1377 14.2056 32.9634 13.9772C32.7 13.6347 32.4483 13.2844 32.1694 12.9555C31.9332 12.6787 31.6136 12.5375 31.2496 12.4891C30.4246 12.3788 29.7701 12.9438 29.7701 13.776C29.7701 15.6008 29.7701 17.4257 29.7701 19.2505C29.7701 19.4053 29.803 19.4401 29.956 19.4401C30.353 19.4401 30.75 19.4401 31.1469 19.4401C31.3309 19.4401 31.3541 19.4169 31.3541 19.235C31.3541 17.6869 31.3541 16.1388 31.3541 14.5926C31.3541 14.5268 31.3522 14.4571 31.4316 14.4339C31.511 14.4107 31.5459 14.4687 31.5846 14.5229C31.7337 14.7455 31.8751 14.9719 32.0358 15.1847C32.3205 15.5621 32.6458 15.9027 33.0621 16.1407C33.5405 16.4136 34.0188 16.4174 34.4932 16.1349C34.621 16.0594 34.743 15.9743 34.8554 15.8775C35.2853 15.5157 35.6125 15.0686 35.9011 14.5926C35.9262 14.552 35.9456 14.5016 35.9805 14.4726C36.0095 14.4475 36.0637 14.4281 36.0986 14.4378C36.1296 14.4455 36.1548 14.492 36.1702 14.5268C36.1819 14.5539 36.1741 14.5907 36.1741 14.6216C36.1741 16.1659 36.1741 17.7101 36.1741 19.2544C36.1741 19.4034 36.2051 19.4363 36.3562 19.4363C36.757 19.4363 37.1559 19.4363 37.5568 19.4363C37.7311 19.4363 37.7562 19.4092 37.7562 19.2331C37.7562 18.3081 37.7562 17.3831 37.7562 16.4561C37.7562 15.5544 37.7582 14.6448 37.7543 13.7353Z" fill="#2C2E77"/>
<path d="M40.4519 16.7522C41.0948 16.7522 41.7358 16.7522 42.3787 16.7522C42.6266 16.7522 42.8687 16.7232 43.101 16.638C43.9221 16.34 44.4624 15.6027 44.4973 14.7261C44.5108 14.3952 44.476 14.0682 44.354 13.7566C44.1429 13.2225 43.7324 12.9071 43.2095 12.7194C42.6634 12.5239 42.096 12.4813 41.5228 12.4833C41.0212 12.4852 40.5236 12.5297 40.0433 12.6845C39.228 12.9477 38.7768 13.5089 38.771 14.3004C38.7633 15.3492 38.7594 16.3962 38.773 17.445C38.7807 18.0604 39.0402 18.5655 39.5417 18.937C39.8206 19.1441 40.1382 19.2699 40.4771 19.3376C41.211 19.4847 41.9469 19.4653 42.6789 19.3124C43.3063 19.1808 43.7633 18.8209 44.0383 18.2384C44.1022 18.101 44.1584 17.9598 44.2145 17.8204C44.2591 17.7062 44.2397 17.6734 44.1216 17.6405C43.7459 17.534 43.3702 17.4295 42.9945 17.325C42.8551 17.2863 42.8512 17.2883 42.8028 17.4295C42.675 17.8069 42.4426 17.9733 42.0437 17.9733C41.6603 17.9733 41.2749 17.9733 40.8915 17.9733C40.8373 17.9733 40.7811 17.9733 40.7269 17.9656C40.5177 17.9404 40.3415 17.7895 40.3318 17.5998C40.3202 17.3231 40.328 17.0464 40.328 16.7542C40.3744 16.7522 40.4132 16.7522 40.4519 16.7522ZM40.2331 15.2931C40.2311 15.2563 40.2273 15.2293 40.2273 15.2002C40.2273 14.939 40.2253 14.6777 40.2273 14.4165C40.2292 14.1494 40.3667 13.9985 40.6359 13.9753C40.7153 13.9675 40.7966 13.9675 40.8779 13.9675C41.304 13.9675 41.73 13.9675 42.156 13.9675C42.2141 13.9675 42.2722 13.9695 42.3303 13.9753C42.5763 13.9985 42.7564 14.1417 42.7912 14.3836C42.8164 14.5558 42.8144 14.7377 42.7854 14.91C42.7447 15.1557 42.553 15.2796 42.2509 15.2912C42.067 15.297 41.883 15.2931 41.699 15.2931C41.2478 15.2931 40.7947 15.2931 40.3435 15.2931C40.3086 15.2931 40.2737 15.2931 40.2331 15.2931Z" fill="#2C2E77"/>
<path d="M28.0563 13.0618C27.7561 12.8103 27.4017 12.6632 27.0202 12.5858C26.3212 12.4445 25.6202 12.4639 24.923 12.5916C24.3266 12.7 23.8424 12.9922 23.5461 13.5398C23.4474 13.7237 23.3699 13.9191 23.2886 14.1126C23.2441 14.221 23.2654 14.2539 23.3796 14.2849C23.7359 14.3855 24.0942 14.4861 24.4505 14.5867C24.6461 14.6409 24.6422 14.6409 24.7177 14.4571C24.8262 14.1958 24.9908 13.9752 25.2929 13.9636C25.7789 13.9443 26.2669 13.9539 26.7549 13.9598C26.9583 13.9617 27.1577 14.1204 27.1655 14.2926C27.181 14.5809 27.1694 14.8712 27.1694 15.1731C27.1209 15.1731 27.0822 15.1731 27.0435 15.1731C26.3793 15.1731 25.7131 15.1673 25.0489 15.175C24.4098 15.1828 23.887 15.444 23.4803 15.9317C23.0794 16.4135 22.9574 16.9786 23.0136 17.5901C23.0407 17.8959 23.1221 18.1861 23.2867 18.4474C23.552 18.8634 23.947 19.0976 24.406 19.2427C24.983 19.4246 25.5775 19.4517 26.1779 19.4362C26.6542 19.4246 27.1229 19.3666 27.5741 19.1982C28.3293 18.9157 28.7263 18.3777 28.7321 17.5978C28.7399 16.5664 28.7418 15.533 28.7302 14.5016C28.7263 13.9269 28.5036 13.4373 28.0563 13.0618ZM27.1752 16.6825C27.1732 16.9631 27.1694 17.2437 27.1674 17.5243C27.1655 17.8436 27.0086 18.0062 26.6891 18.0178C26.509 18.0236 26.327 18.0197 26.1469 18.0197C25.8467 18.0197 25.5466 18.0197 25.2464 18.0197C24.861 18.0197 24.588 17.7894 24.5473 17.4063C24.5338 17.2747 24.5493 17.1334 24.5841 17.0057C24.6519 16.7599 24.8533 16.609 25.1089 16.5896C25.1612 16.5858 25.2115 16.5838 25.2638 16.5838C25.8603 16.5838 26.4567 16.5838 27.0551 16.5838C27.09 16.5838 27.1248 16.5838 27.1771 16.5838C27.1752 16.6264 27.1752 16.6535 27.1752 16.6825Z" fill="#2C2E77"/>
</svg>
