<svg width="50" height="31" viewBox="0 0 50 31" fill="none" xmlns="http://www.w3.org/2000/svg">
    <path class="bg" fill="#fff" stroke="#e1e1e1" stroke-miterlimit="10" stroke-width="0.6" fill-rule="evenodd" clip-rule="evenodd" d="M3.77225 -0.000244141H45.2639C47.3469 -0.000244141 49.0361 1.6848 49.0361 3.76413V26.3504C49.0361 28.429 47.3472 30.1141 45.2639 30.1141H3.77225C1.68928 30.1141 0 28.4287 0 26.3504V3.76413C0 1.6848 1.68893 -0.000244141 3.77225 -0.000244141Z"/>
    <path d="M18.7028 11.1202C18.3796 11.1202 18.0924 10.8683 18.0924 10.5444C18.0924 10.5444 18.0924 10.5444 18.0924 10.5084C18.0924 10.1845 18.3437 9.89664 18.7028 9.89664C19.0619 9.89664 19.3133 10.1845 19.3133 10.5084C19.3133 10.8683 19.0619 11.1202 18.7028 11.1202ZM18.7028 9.75269C18.236 9.75269 17.9128 10.1126 17.9128 10.5084C17.9128 10.9043 18.236 11.2642 18.7028 11.2642C19.1696 11.2642 19.4928 10.9043 19.4928 10.5084C19.4928 10.1126 19.1696 9.75269 18.7028 9.75269V9.75269ZM16.5483 10.9043L16.656 11.0123C16.5124 11.1562 16.3328 11.2642 16.0456 11.2642C15.6147 11.2642 15.2556 10.9403 15.2556 10.5084C15.2556 10.0766 15.5787 9.75269 16.0456 9.75269C16.3328 9.75269 16.4765 9.86065 16.656 9.96862L16.5483 10.0766C16.4046 10.0046 16.261 9.93263 16.0456 9.93263C15.6865 9.93263 15.4351 10.1845 15.4351 10.5444C15.4351 10.9043 15.6865 11.1562 16.0456 11.1562C16.261 11.1202 16.4046 11.0483 16.5483 10.9043ZM13.6756 9.78867H13.8551V11.2642H13.7115L12.706 10.0766V11.2642H12.5265V9.78867H12.706L13.6756 10.9763V9.78867ZM10.0129 10.7244L10.372 9.96862L10.7311 10.7244H10.0129V10.7244ZM10.3001 9.78867L9.58197 11.2642H9.76152L9.94106 10.8683H10.767L10.9465 11.2642H11.1261L10.4079 9.78867C10.4438 9.78867 10.3001 9.78867 10.3001 9.78867ZM7.75063 11.1202H7.2479V10.5804H7.75063C8.00199 10.5804 8.14562 10.6884 8.14562 10.8323C8.14562 11.0123 8.00199 11.1202 7.75063 11.1202V11.1202ZM7.2479 9.93263H7.71471C7.93017 9.93263 8.0738 10.0406 8.0738 10.1845C8.0738 10.3645 7.93017 10.4365 7.71471 10.4365H7.2479V9.93263ZM7.96608 10.5084C8.10971 10.4365 8.21744 10.3645 8.21744 10.1486C8.21744 9.93263 8.00199 9.78867 7.71471 9.78867H7.06836V11.2642H7.75063C8.0738 11.2642 8.32517 11.1202 8.32517 10.8683C8.32517 10.6524 8.18153 10.5444 7.96608 10.5084V10.5084Z" fill="#9C9B9B"/>
    <path d="M23.6941 9.03296V12.7398H26.7105V15.007H23.6941V18.4619C23.6941 19.2176 24.0532 19.5415 24.7714 19.6135C25.5973 19.7215 26.2437 19.3616 26.7105 19.1457L26.7823 19.1097L27.7159 21.125L27.68 21.161C26.4591 21.7728 25.705 21.9528 24.7714 21.9528C22.5091 21.9528 21.2882 20.6932 21.2882 18.4259V10.2925L23.6941 9.03296ZM37.3395 12.9917H37.3036V21.6649H39.7095V14.8991C39.9967 14.8631 40.284 14.8271 40.8585 14.8271C41.4331 14.8271 41.7922 14.8991 42.1872 15.007H42.2231L42.9412 12.7757H42.8694C42.1512 12.5958 41.5767 12.5238 40.6431 12.5238C39.7454 12.5238 38.3449 12.6318 37.3395 12.9917V12.9917ZM27.7159 17.3103C27.7159 14.3232 29.0804 12.5238 31.8454 12.5238C34.5745 12.5238 36.0468 14.0353 36.0468 17.0224L31.9891 19.0017L30.9477 17.0224L33.5331 15.6908C33.5691 15.115 32.815 14.7551 31.8813 14.7911C30.8041 14.8631 30.1936 15.3669 30.1936 17.2023C30.1936 19.0017 31.0554 19.6135 32.3481 19.6135C33.4972 19.6135 34.6104 19.4336 35.1849 19.2536H35.2209L35.939 21.4129H35.9031C34.9336 21.7368 33.6409 21.8808 32.3481 21.8808C29.2959 21.8808 27.7159 20.3333 27.7159 17.3103V17.3103ZM11.7365 12.9917H11.7006V21.6649H14.1065V14.8991C14.5374 14.8271 14.8606 14.8271 15.5069 14.8271C16.6919 14.8271 17.2665 15.3309 17.2665 16.3386V21.7008H19.6723V16.4825C19.6723 13.9993 18.1642 12.5238 15.6865 12.5238C14.2501 12.5238 12.6342 12.7038 11.7365 12.9917V12.9917ZM7.06836 21.6649H9.47425V12.7398H7.06836V21.6649Z" fill="url(#paint0_linear)"/>
    <defs>
        <linearGradient id="paint0_linear" x1="5.99808" y1="15.4849" x2="42.9636" y2="15.4849" gradientUnits="userSpaceOnUse">
            <stop stop-color="#FF8700"/>
            <stop offset="1" stop-color="#FF500F"/>
        </linearGradient>
    </defs>
</svg>
