<svg width="51" height="32" viewBox="0 0 51 32" fill="none" xmlns="http://www.w3.org/2000/svg">
<path d="M5.12489 1.10559H46.5857C48.6668 1.10559 50.3555 2.78421 50.3555 4.85563V27.3562C50.3555 29.427 48.6678 31.1056 46.5857 31.1056H5.12489C3.04348 31.1056 1.35547 29.4266 1.35547 27.3562V4.85563C1.35582 2.78387 3.04348 1.10559 5.12489 1.10559Z" fill="white" stroke="#E1E1E1" stroke-miterlimit="10"/>
<g clip-path="url(#clip0)">
<path fill-rule="evenodd" clip-rule="evenodd" d="M19.5208 6.10513L32.2357 6.11651C34.2277 6.11651 35.8782 7.75567 35.8669 9.75909V22.4739C35.8669 24.4774 34.2277 26.1165 32.2243 26.1165L19.498 26.1051C17.4946 26.0938 15.8555 24.466 15.8555 22.4626L15.8669 9.7477C15.8669 7.74429 17.506 6.09375 19.5208 6.10513Z" fill="#312783"/>
<path fill-rule="evenodd" clip-rule="evenodd" d="M33.0439 15.2348H31.5982L30.9949 16.3731H32.008L33.0439 15.2348ZM34.0114 17.0789H32.5999V20.1295C32.5999 21.0629 31.9739 21.3361 31.5072 21.3361C31.0632 21.3361 30.5851 21.1767 30.5851 20.3572V17.0789H29.1736L29.1623 20.5507C29.1623 21.8939 29.9363 22.4972 30.9949 22.4972C31.7348 22.5086 32.3154 22.1784 32.6341 21.6207H32.6455V22.3606H34.0001V17.0789H34.0114Z" fill="#FFED00"/>
<path fill-rule="evenodd" clip-rule="evenodd" d="M28.0695 18.4789C28.0695 17.1699 26.6921 16.9422 25.9294 16.9422C24.8253 16.9422 23.687 17.1699 23.5162 18.7863H24.8822C24.9277 18.4789 25.0529 18.0578 25.7587 18.0578C26.123 18.0578 26.6921 18.0919 26.6921 18.6725C26.6921 18.9684 26.4189 19.0595 26.1912 19.0936L24.9163 19.2758C24.0171 19.401 23.3341 19.936 23.3341 20.9604C23.3341 22.0532 24.1765 22.4972 24.9733 22.4972C25.9408 22.4972 26.3961 22.0532 26.7149 21.7345C26.749 22.0305 26.7718 22.0988 26.8515 22.3492L28.0695 22.3378C28.0695 21.7573 28.0581 21.3247 28.0581 21.3247V18.4789H28.0695Z" fill="#FFED00"/>
<path fill-rule="evenodd" clip-rule="evenodd" d="M22.0478 15.2348H20.6364V17.0789H19.9078V18.0692H20.6364V21.2792C20.6364 21.9622 20.8526 22.4175 22.082 22.4175H22.2641C22.4918 22.4175 22.7081 22.4061 22.9243 22.3947V21.3361C22.8219 21.3475 22.7194 21.3589 22.6284 21.3589C22.0478 21.3589 22.0365 21.2337 22.0365 20.9263L22.0478 18.0692H22.9243V17.0789H22.0478V15.2348Z" fill="#FFED00"/>
<path fill-rule="evenodd" clip-rule="evenodd" d="M19.2476 15.2234H17.7223L17.7109 22.3492H19.2362L19.2476 15.2234Z" fill="#FFED00"/>
<path fill-rule="evenodd" clip-rule="evenodd" d="M26.6921 20.4596V19.7766C26.5555 19.8904 26.3165 19.9815 25.7245 20.0612C25.1895 20.1523 24.757 20.2888 24.757 20.858C24.757 21.3361 25.144 21.4954 25.4172 21.4954C26.0433 21.4954 26.6921 21.1084 26.6921 20.4596Z" fill="#312783"/>
</g>
<defs>
<clipPath id="clip0">
<rect width="20" height="20" fill="white" transform="translate(15.8555 6.10559)"/>
</clipPath>
</defs>
</svg>
