<svg width="51" height="32" viewBox="0 0 51 32" fill="none" xmlns="http://www.w3.org/2000/svg">
<path d="M5.22883 1.39063H46.6896C48.7707 1.39063 50.4594 3.06925 50.4594 5.14067V27.6413C50.4594 29.712 48.7717 31.3906 46.6896 31.3906H5.22883C3.14743 31.3906 1.45941 29.7117 1.45941 27.6413V5.14067C1.45976 3.0689 3.14743 1.39063 5.22883 1.39063Z" fill="white" stroke="#E1E1E1" stroke-miterlimit="10"/>
<path d="M15.9594 6.31219C14.0771 6.31219 12.5869 7.80239 12.5869 9.68474V17.92C13.4496 18.3122 14.4692 18.7044 15.332 18.7044C17.1359 18.7044 17.2143 17.6063 17.2143 16.822C17.2143 16.0377 17.2928 13.0573 17.2928 13.1357H20.1947C20.1947 13.1357 20.1947 15.4102 20.1947 16.9789C20.1947 18.5475 19.1751 19.724 16.0379 19.724C14.783 19.724 13.6065 19.5671 12.6653 19.3318V26.3906H17.6065C19.4104 26.3906 20.979 24.9004 20.979 23.0181V6.31219H15.9594Z" fill="#0F549D"/>
<path d="M25.1358 6.31219C23.3319 6.31219 21.7633 7.80239 21.7633 9.68474V14.0769C22.5476 13.4494 23.8809 12.9789 25.9201 12.9789C26.9397 12.9789 28.1162 13.1357 29.1358 13.4494V14.8612C28.3515 14.3906 27.3319 14.0769 26.3907 14.0769C24.3515 14.0769 23.6456 15.0965 23.6456 16.4298C23.6456 17.92 24.6652 18.7828 26.3907 18.7828C27.3319 18.7828 28.3515 18.4691 29.1358 17.9985V19.4102C28.1162 19.724 27.0182 19.8808 25.9201 19.8808C24.0378 19.8808 22.626 19.4887 21.7633 18.7044V26.4691H26.7045C28.5084 26.4691 30.077 24.9789 30.077 23.0965V6.31219H25.1358Z" fill="#B41F36"/>
<path d="M34.4692 15.724H32.6653V14.0769H34.4692C34.9398 14.0769 35.2535 14.4691 35.2535 14.8612C35.2535 15.2534 34.9398 15.724 34.4692 15.724ZM32.6653 18.4691H34.7045C35.1751 18.4691 35.4888 18.0769 35.4888 17.6847V17.5279C35.4888 17.0573 35.0967 16.7436 34.7045 16.7436H32.6653V18.4691ZM34.3908 6.31219C32.5868 6.31219 31.0182 7.80239 31.0182 9.68474V13.1357H36.3516C37.2143 13.1357 37.9202 13.8416 37.9202 14.7044C37.9202 15.5671 37.2143 16.273 36.3516 16.273H36.43C37.3712 16.273 38.3123 16.9789 38.3123 17.92C38.3123 18.8612 37.3712 19.5671 36.43 19.5671H31.9594H31.0182V26.3906H35.9594C37.7633 26.3906 39.3319 24.9004 39.3319 23.0181V6.31219H34.3908Z" fill="#329947"/>
</svg>
