<svg width="51" height="32" viewBox="0 0 51 32" fill="none" xmlns="http://www.w3.org/2000/svg">
<path d="M4.89863 1.43359H46.3594C48.4405 1.43359 50.1292 3.11222 50.1292 5.18364V27.6842C50.1292 29.755 48.4415 31.4336 46.3594 31.4336H4.89863C2.81723 31.4336 1.12921 29.7546 1.12921 27.6842V5.18364C1.12956 3.11187 2.81723 1.43359 4.89863 1.43359Z" fill="white" stroke="#E1E1E1" stroke-miterlimit="10"/>
<path d="M38.1529 15.9513C38.1529 11.3941 32.5138 7.66846 25.5478 7.66846C18.5819 7.66846 12.9427 11.3941 12.9427 15.9513C12.9427 16.0843 12.9427 16.3837 12.9427 16.4502C12.9427 21.2735 17.8853 25.1987 25.5478 25.1987C33.2767 25.1987 38.1529 21.2735 38.1529 16.4502C38.1529 16.2506 38.1529 16.1508 38.1529 15.9513Z" fill="#060E9F"/>
<path d="M25.5478 23.7018C32.2346 23.7018 37.6553 20.2169 37.6553 15.918C37.6553 11.6191 32.2346 8.13416 25.5478 8.13416C18.861 8.13416 13.4403 11.6191 13.4403 15.918C13.4403 20.2169 18.861 23.7018 25.5478 23.7018Z" fill="#009EE2"/>
<path d="M21.5009 13.4897C21.5009 13.4897 21.3682 13.6227 21.4677 13.7225C21.6668 13.9554 22.2638 14.1217 22.8609 13.9886C23.2258 13.9221 23.657 13.5562 24.1214 13.1903C24.5858 12.8244 25.0834 12.4252 25.5478 12.2589C26.0454 12.0926 26.3771 12.1591 26.5761 12.2256C26.8083 12.2922 27.0737 12.4585 27.5381 12.7911C28.3674 13.4232 31.7177 16.3504 32.2816 16.8494C32.746 16.6498 34.8026 15.7517 37.6221 15.1196C37.39 13.6227 36.4612 12.2589 35.1011 11.1279C33.1772 11.9263 30.822 12.3587 28.5332 11.2277C28.5332 11.2277 27.2727 10.629 26.0454 10.6622C24.221 10.6955 23.4248 11.4938 22.5956 12.3254L21.5009 13.4897Z" fill="white"/>
<path d="M32.1157 17.1488C32.0825 17.1155 28.2015 13.7225 27.3059 13.0573C26.8083 12.6581 26.5098 12.5916 26.2112 12.525C26.0454 12.4918 25.8463 12.525 25.6805 12.5583C25.2824 12.6581 24.7517 13.024 24.2541 13.3899C23.7565 13.7891 23.2921 14.155 22.8609 14.2548C22.297 14.3878 21.6336 14.2215 21.335 14.0219C21.2024 13.9221 21.136 13.8556 21.0697 13.7558C20.9702 13.4897 21.1692 13.2901 21.2024 13.2568L22.2638 12.0926C22.3965 11.9595 22.5292 11.8597 22.6287 11.7267C22.297 11.7599 21.9653 11.8597 21.6668 11.9595C21.2687 12.0593 20.9038 12.1591 20.5389 12.1591C20.3731 12.1591 19.5438 12.0261 19.3779 11.9928C18.416 11.7267 17.5535 11.4606 16.293 10.8618C14.7671 11.9928 13.7388 13.4232 13.4735 14.9866C13.7057 15.0531 14.0374 15.1529 14.2032 15.1862C17.653 15.9512 18.7145 16.7496 18.9135 16.9159C19.1126 16.6831 19.4443 16.5167 19.776 16.5167C20.1741 16.5167 20.5058 16.7163 20.7048 17.0157C20.9038 16.8494 21.1692 16.7163 21.5341 16.7163C21.6999 16.7163 21.8658 16.7496 22.0316 16.8161C22.4297 16.9492 22.6287 17.2153 22.7282 17.4481C22.8609 17.3816 23.0268 17.3483 23.1926 17.3483C23.3917 17.3483 23.5575 17.3816 23.7565 17.4814C24.3868 17.7475 24.4863 18.3795 24.42 18.8452C24.4531 18.8452 24.5195 18.8452 24.5527 18.8452C25.3156 18.8452 25.9127 19.444 25.9127 20.2091C25.9127 20.4419 25.8463 20.6748 25.7468 20.8411C25.9459 20.9409 26.4766 21.207 26.941 21.1737C27.3059 21.1405 27.4386 21.0074 27.5049 20.9409C27.5381 20.9076 27.5712 20.8411 27.5381 20.8078L26.5761 19.7101C26.5761 19.7101 26.4103 19.5438 26.4766 19.5105C26.5429 19.444 26.6424 19.5438 26.7088 19.6103C27.2064 20.0095 27.8034 20.6415 27.8034 20.6415C27.8034 20.6415 27.8698 20.7413 28.0688 20.7746C28.2678 20.8078 28.5996 20.7746 28.8318 20.6082C28.8981 20.575 28.9644 20.5084 28.9976 20.4419C29.2298 20.1093 28.9644 19.8099 28.9644 19.8099L27.8366 18.5459C27.8366 18.5459 27.6708 18.3795 27.7371 18.3463C27.7703 18.2797 27.903 18.3795 27.9693 18.4461C28.3342 18.7454 28.8318 19.2444 29.3293 19.7434C29.4288 19.8099 29.8601 20.076 30.424 19.7101C30.7557 19.4773 30.822 19.2111 30.822 19.0116C30.7889 18.7454 30.5898 18.5459 30.5898 18.5459L29.0308 16.9824C29.0308 16.9824 28.8649 16.8494 28.9313 16.7828C28.9644 16.7163 29.0971 16.8161 29.1635 16.8826C29.661 17.2818 30.9879 18.5126 30.9879 18.5126C31.0211 18.5126 31.4855 18.8452 32.0494 18.4793C32.2484 18.3463 32.3811 18.1467 32.3811 17.9138C32.4143 17.3816 32.1157 17.1488 32.1157 17.1488Z" fill="white"/>
<path d="M24.619 19.1447C24.3868 19.1447 24.1214 19.2777 24.0883 19.2777C24.0551 19.2777 24.0883 19.1779 24.1214 19.1114C24.1546 19.0449 24.4531 18.1135 23.6902 17.7808C23.0931 17.5147 22.7282 17.8141 22.6287 17.9471C22.5956 17.9804 22.5956 17.9804 22.5624 17.9471C22.5624 17.7808 22.4629 17.3151 21.9653 17.1488C21.2355 16.916 20.7711 17.4482 20.6385 17.6145C20.5721 17.1821 20.2404 16.8827 19.8092 16.8827C19.3448 16.8827 18.9467 17.2486 18.9467 17.7143C18.9467 18.18 19.3116 18.5792 19.8092 18.5792C20.0414 18.5792 20.2404 18.4794 20.4063 18.3463C20.4063 18.3463 20.4063 18.3463 20.4063 18.3796C20.3731 18.5792 20.3067 19.3442 21.1029 19.6769C21.4346 19.8099 21.6999 19.7101 21.9321 19.5438C21.9985 19.5106 21.9985 19.5106 21.9985 19.5771C21.9653 19.7767 21.9985 20.2091 22.5956 20.442C23.0268 20.6083 23.2922 20.442 23.4912 20.2756C23.5575 20.2091 23.5907 20.2091 23.5907 20.3089C23.6239 20.8744 24.0883 21.3401 24.6522 21.3401C25.2493 21.3401 25.7137 20.8744 25.7137 20.2756C25.6805 19.6104 25.1829 19.1447 24.619 19.1447Z" fill="white"/>
<path d="M32.2816 16.7495C31.0874 15.7183 28.3342 13.29 27.5712 12.7246C27.14 12.3919 26.8415 12.2256 26.6093 12.1591C26.5098 12.1258 26.3439 12.0925 26.1449 12.0925C25.9459 12.0925 25.7468 12.1258 25.5478 12.1923C25.0502 12.3586 24.5858 12.7246 24.1214 13.0905L24.0883 13.1237C23.657 13.4564 23.1926 13.8223 22.8609 13.8888C22.7282 13.9221 22.5624 13.9553 22.3965 13.9553C22.0316 13.9553 21.6668 13.8555 21.5341 13.6892C21.5009 13.656 21.5341 13.6227 21.5672 13.5562L22.6287 12.4252C23.458 11.5936 24.2209 10.8285 26.0122 10.762C26.0454 10.762 26.0785 10.762 26.1117 10.762C27.2395 10.762 28.3342 11.2609 28.4669 11.3275C29.5284 11.8264 30.5898 12.0925 31.6845 12.0925C32.8123 12.0925 33.9733 11.8264 35.2006 11.2609C35.068 11.1611 34.9353 11.0281 34.7694 10.9283C33.7079 11.394 32.6796 11.6268 31.6845 11.6268C30.6562 11.6268 29.661 11.394 28.6659 10.895C28.5996 10.8618 27.3722 10.2963 26.1117 10.2963C26.0785 10.2963 26.0454 10.2963 26.0122 10.2963C24.5195 10.3295 23.657 10.8618 23.0931 11.3275C22.5292 11.3275 22.0648 11.4605 21.6336 11.5936C21.2687 11.6934 20.937 11.7932 20.6053 11.7932C20.4726 11.7932 20.2404 11.7932 20.2072 11.7932C19.8423 11.7932 17.9847 11.3275 16.5252 10.762C16.3594 10.8618 16.2267 10.9948 16.094 11.0946C17.6199 11.7266 19.5106 12.2256 20.1077 12.2589C20.2736 12.2589 20.4394 12.2921 20.6384 12.2921C21.0365 12.2921 21.4346 12.1923 21.7994 12.0925C22.0316 12.026 22.2638 11.9595 22.5292 11.9262C22.4629 11.9927 22.3965 12.0593 22.3302 12.1258L21.2687 13.29C21.1692 13.3898 21.0033 13.5894 21.136 13.8888C21.1692 13.9886 21.2687 14.1217 21.4014 14.1882C21.6668 14.3545 22.098 14.4876 22.5292 14.4876C22.6951 14.4876 22.8278 14.4876 22.9936 14.4543C23.458 14.3545 23.9224 13.9886 24.42 13.5894C24.818 13.2568 25.3819 12.8576 25.8132 12.7578C25.9459 12.7246 26.0785 12.6913 26.2112 12.6913C26.2444 12.6913 26.2776 12.6913 26.3107 12.6913C26.6093 12.7246 26.8747 12.8243 27.3722 13.1903C28.2347 13.8555 32.1489 17.2485 32.1821 17.2818C32.1821 17.2818 32.4474 17.5146 32.4143 17.8472C32.4143 18.0468 32.2816 18.2132 32.1157 18.3462C31.9499 18.446 31.784 18.5125 31.6181 18.5125C31.3528 18.5125 31.1869 18.3795 31.1537 18.3795C31.1537 18.3795 29.7937 17.1487 29.3293 16.7495C29.263 16.683 29.1635 16.6165 29.0971 16.6165C29.064 16.6165 29.0308 16.6497 28.9976 16.6497C28.9313 16.7495 28.9976 16.8826 29.0971 16.9491L30.6562 18.5125C30.6562 18.5125 30.8552 18.6788 30.8552 18.945C30.8552 19.2111 30.7557 19.4107 30.4903 19.577C30.2913 19.71 30.1254 19.7433 29.9264 19.7433C29.6942 19.7433 29.5284 19.6435 29.4952 19.6102L29.263 19.3774C28.8649 18.9782 28.4337 18.5458 28.1352 18.3129C28.0688 18.2464 27.9693 18.1799 27.903 18.1799C27.8698 18.1799 27.8366 18.1799 27.8034 18.2132C27.7703 18.2464 27.7371 18.3129 27.8366 18.446C27.8698 18.4793 27.903 18.5458 27.903 18.5458L29.0308 19.8098C29.0308 19.8098 29.263 20.076 29.064 20.3421L29.0308 20.4086C28.9976 20.4419 28.9644 20.4751 28.9313 20.5084C28.7322 20.6747 28.4669 20.6747 28.3674 20.6747C28.301 20.6747 28.2678 20.6747 28.2015 20.6747C28.102 20.6414 28.0025 20.6082 27.9693 20.5749C27.903 20.5084 27.339 19.9096 26.8747 19.5437C26.8083 19.4772 26.742 19.4107 26.6425 19.4107C26.6093 19.4107 26.5761 19.4107 26.5429 19.4439C26.4434 19.5437 26.5761 19.71 26.6425 19.7433L27.6044 20.8078C27.6044 20.8078 27.6044 20.841 27.5712 20.8743C27.5381 20.9076 27.4054 21.0406 27.0737 21.0739C27.0405 21.0739 26.9742 21.0739 26.941 21.0739C26.5761 21.0739 26.1781 20.9076 25.979 20.8078C26.0785 20.6082 26.1117 20.4086 26.1117 20.209C26.1117 19.4107 25.4815 18.7454 24.6853 18.7454C24.6522 18.7454 24.6522 18.7454 24.619 18.7454C24.6522 18.3795 24.5858 17.6809 23.8892 17.3815C23.6902 17.2818 23.4912 17.2485 23.2922 17.2485C23.1263 17.2485 22.9936 17.2818 22.8609 17.315C22.7282 17.0156 22.4629 16.8161 22.1643 16.7163C21.9985 16.6497 21.7994 16.6165 21.6336 16.6165C21.335 16.6165 21.0697 16.7163 20.8375 16.8826C20.6053 16.5832 20.2404 16.4169 19.8755 16.4169C19.5438 16.4169 19.2453 16.5499 19.0131 16.7828C18.7145 16.5499 17.5203 15.7849 14.3359 15.053C14.17 15.0198 13.8383 14.92 13.6061 14.8535C13.573 15.0198 13.5398 15.1861 13.5398 15.3857C13.5398 15.3857 14.1369 15.5187 14.2364 15.552C17.4872 16.2838 18.5818 17.0489 18.7477 17.182C18.6813 17.315 18.6482 17.4813 18.6482 17.6477C18.6482 18.3129 19.2121 18.8784 19.8755 18.8784C19.9419 18.8784 20.0414 18.8784 20.1077 18.8452C20.2072 19.3441 20.5389 19.71 21.0365 19.9096C21.1692 19.9762 21.335 20.0094 21.4677 20.0094C21.5672 20.0094 21.6668 20.0094 21.7331 19.9762C21.8326 20.209 22.0316 20.5084 22.496 20.6747C22.6619 20.7412 22.8278 20.7745 22.9604 20.7745C23.0931 20.7745 23.2258 20.7412 23.3253 20.708C23.5575 21.2402 24.0883 21.6061 24.6522 21.6061C25.0502 21.6061 25.4151 21.4398 25.6805 21.1737C25.9127 21.3067 26.4103 21.5396 26.9078 21.5396C26.9742 21.5396 27.0405 21.5396 27.1068 21.5396C27.6044 21.473 27.8366 21.2735 27.9361 21.1404C27.9693 21.1071 27.9693 21.0739 28.0025 21.0406C28.1352 21.0739 28.2347 21.1071 28.4005 21.1071C28.6659 21.1071 28.9313 21.0073 29.1966 20.8078C29.462 20.6082 29.6279 20.3421 29.661 20.1425C29.7606 20.1757 29.8269 20.1757 29.9264 20.1757C30.1918 20.1757 30.4903 20.0759 30.7225 19.9096C31.2201 19.577 31.3196 19.1445 31.3196 18.8784C31.4191 18.9117 31.4855 18.9117 31.585 18.9117C31.8503 18.9117 32.1157 18.8452 32.3479 18.6789C32.6465 18.4793 32.8455 18.1799 32.8787 17.814C32.9118 17.5811 32.8455 17.315 32.7128 17.1154C33.5421 16.7495 35.466 16.051 37.7548 15.5187C37.7548 15.3524 37.7217 15.1528 37.6885 14.9865C34.8358 15.6185 32.7791 16.5167 32.2816 16.7495ZM24.619 21.2069C24.0883 21.2069 23.657 20.8078 23.6239 20.2755C23.6239 20.2423 23.6239 20.1092 23.5244 20.1092C23.4912 20.1092 23.458 20.1425 23.3917 20.1757C23.259 20.2755 23.1263 20.4086 22.8941 20.4086C22.7946 20.4086 22.6951 20.3753 22.5624 20.3421C21.9985 20.1092 21.9985 19.71 21.9985 19.577C21.9985 19.5437 21.9985 19.4772 21.9653 19.4439L21.9321 19.4107H21.899C21.8658 19.4107 21.8326 19.4107 21.7994 19.4439C21.6336 19.5437 21.4677 19.6102 21.335 19.6102C21.2355 19.6102 21.1692 19.577 21.0697 19.5437C20.3399 19.2443 20.3731 18.5458 20.4394 18.3462C20.4394 18.3129 20.4394 18.2797 20.4063 18.2464L20.3399 18.2132L20.3067 18.2464C20.1741 18.3795 19.975 18.446 19.776 18.446C19.3448 18.446 19.0131 18.1134 19.0131 17.6809C19.0131 17.2485 19.3448 16.9158 19.776 16.9158C20.1741 16.9158 20.4726 17.2152 20.5389 17.5811L20.5721 17.7807L20.6716 17.6144C20.6716 17.5811 21.0033 17.1154 21.5672 17.1154C21.6668 17.1154 21.7994 17.1487 21.899 17.182C22.3634 17.315 22.4297 17.7475 22.4297 17.9138C22.4297 18.0136 22.496 18.0136 22.5292 18.0136C22.5624 18.0136 22.5956 17.9803 22.6287 17.9803C22.7282 17.8805 22.8941 17.7475 23.1926 17.7475C23.3253 17.7475 23.458 17.7807 23.6239 17.8472C24.3536 18.1466 24.0219 19.078 24.0219 19.078C23.9556 19.2443 23.9556 19.3109 24.0219 19.3441H24.0551H24.0883C24.1214 19.3441 24.1546 19.3441 24.2209 19.3109C24.3205 19.2776 24.4531 19.2111 24.619 19.2111C25.1497 19.2111 25.6141 19.6768 25.6141 20.209C25.581 20.7412 25.1497 21.2069 24.619 21.2069Z" fill="#060E9F"/>
</svg>
