<svg width="51" height="33" viewBox="0 0 51 33" fill="none" xmlns="http://www.w3.org/2000/svg">
<path d="M5.13547 1.44263H46.5755C48.6405 1.44263 50.3555 3.12263 50.3555 5.22263V27.7976C50.3555 29.8626 48.6755 31.5426 46.5755 31.5426H5.13547C3.07047 31.5426 1.35547 29.8626 1.35547 27.7976V5.18763C1.35547 3.12263 3.03547 1.44263 5.13547 1.44263Z" fill="white" stroke="#E1E1E1" stroke-miterlimit="10"/>
<path d="M15.5886 20.2324H17.366V15.0254H15.5886V20.2324ZM17.9789 11.4821H16.7837V12.6838H17.9789V11.4821ZM11.2676 12.0675H9.55147V13.5773H11.145C12.1563 13.5773 12.7386 14.0702 12.7386 14.9946C12.7386 15.9189 12.1563 16.4427 11.145 16.4427H9.55147V13.6081H7.77405V20.2324H9.55147V17.9524H11.237C13.2902 17.9524 14.4853 16.8432 14.4853 14.933C14.4853 13.1459 13.3208 12.0675 11.2676 12.0675ZM19.174 10.2805H15.5886V13.8854H19.174V10.2805ZM18.5918 13.2692H16.2015V10.8659H18.5918V13.2692ZM29.0111 12.0675H27.387V13.5773H28.9192C29.9305 13.5773 30.5128 14.0702 30.5128 14.9946C30.5128 15.9189 29.9305 16.4427 28.9192 16.4427H27.387V13.6081H25.6095V20.2324H27.387V17.9524H29.0111C31.0644 17.9524 32.2595 16.8432 32.2595 14.933C32.2595 13.1459 31.0644 12.0675 29.0111 12.0675ZM43.9353 13.9778L42.4031 17.86L40.8708 13.9778H39.0321L41.4837 20.2324L40.5337 22.6048H42.4031L45.774 13.9778H43.9353ZM35.9676 13.947C34.895 13.947 34.0676 14.1935 33.1482 14.6557L33.6999 15.8881C34.3434 15.5184 34.9869 15.3335 35.5692 15.3335C36.4273 15.3335 36.8563 15.7032 36.8563 16.3811V16.5043H35.1402C33.6079 16.5043 32.7805 17.213 32.7805 18.3838C32.7805 19.5238 33.5773 20.3248 34.9257 20.3248C35.7837 20.3248 36.3966 20.0167 36.887 19.493V20.1708H38.6337V16.1038C38.5724 14.7789 37.6224 13.947 35.9676 13.947ZM37.0095 18.1373C36.8257 18.6611 36.3047 19.0924 35.5692 19.0924C34.9563 19.0924 34.5886 18.7843 34.5886 18.2913C34.5886 17.7984 34.9257 17.5827 35.5999 17.5827H37.0095V18.1373ZM21.9015 18.8767C21.0434 18.8767 20.4305 18.1989 20.4305 17.1821C20.4305 16.1962 21.0434 15.5184 21.9015 15.5184C22.5144 15.5184 22.974 15.7648 23.3111 16.1962L24.5063 15.3335C23.9547 14.5016 23.0047 14.0086 21.8095 14.0086C19.9402 13.9778 18.6531 15.2719 18.6531 17.1821C18.6531 19.0924 19.9402 20.3557 21.8095 20.3557C23.0966 20.3557 24.0466 19.8319 24.5676 18.9692L23.3418 18.1373C23.0353 18.6302 22.545 18.8767 21.9015 18.8767Z" fill="#11C76F"/>
</svg>
